<svg width="103" height="27" viewBox="0 0 103 27" fill="none" xmlns="http://www.w3.org/2000/svg">
<path d="M6.24717 7.372C7.45917 7.372 8.50917 7.66 9.39717 8.236L9.10917 9.55L8.94717 9.586C8.14317 8.914 7.21917 8.578 6.17517 8.578C5.03517 8.578 4.15917 8.974 3.54717 9.766C2.93517 10.546 2.62917 11.692 2.62917 13.204C2.62917 14.728 2.93517 15.892 3.54717 16.696C4.15917 17.5 5.02317 17.902 6.13917 17.902C6.66717 17.902 7.18917 17.806 7.70517 17.614C8.23317 17.422 8.71317 17.152 9.14517 16.804L9.32517 16.894L9.19917 18.262C8.15517 18.838 7.09317 19.126 6.01317 19.126C4.46517 19.126 3.26517 18.628 2.41317 17.632C1.56117 16.624 1.13517 15.19 1.13517 13.33C1.13517 11.422 1.57917 9.952 2.46717 8.92C3.35517 7.888 4.61517 7.372 6.24717 7.372ZM14.9332 9.928C16.2412 9.928 17.2432 10.312 17.9392 11.08C18.6472 11.848 19.0012 12.934 19.0012 14.338C19.0012 15.862 18.6232 17.044 17.8672 17.884C17.1232 18.712 16.0552 19.126 14.6632 19.126C13.3672 19.126 12.3652 18.736 11.6572 17.956C10.9492 17.164 10.5952 16.042 10.5952 14.59C10.5952 13.102 10.9732 11.956 11.7292 11.152C12.4852 10.336 13.5532 9.928 14.9332 9.928ZM14.8072 11.062C13.8592 11.062 13.1512 11.332 12.6832 11.872C12.2272 12.412 11.9992 13.264 11.9992 14.428C11.9992 15.676 12.2272 16.582 12.6832 17.146C13.1392 17.71 13.8352 17.992 14.7712 17.992C15.7312 17.992 16.4452 17.716 16.9132 17.164C17.3812 16.612 17.6152 15.748 17.6152 14.572C17.6152 13.36 17.3812 12.472 16.9132 11.908C16.4572 11.344 15.7552 11.062 14.8072 11.062ZM24.4847 10.018C25.4327 10.018 26.1587 10.246 26.6627 10.702C27.1787 11.158 27.4367 11.818 27.4367 12.682C27.4367 13.69 27.1127 14.482 26.4647 15.058C25.8287 15.622 24.9467 15.904 23.8187 15.904H22.7207V16.192L22.7567 19H21.4247L21.4787 16.3L21.4247 10.036L24.4847 10.018ZM24.2507 14.86C25.4387 14.656 26.0327 13.966 26.0327 12.79C26.0327 12.226 25.8707 11.806 25.5467 11.53C25.2347 11.254 24.7607 11.104 24.1247 11.08L22.7567 11.098L22.7387 14.824L24.2507 14.86ZM32.6774 16.426L32.7314 19H31.3814L31.4534 16.426L31.4354 15.868L28.3934 10.036H29.8694L30.0494 10.558L32.0654 14.41H32.1554L34.3514 10.612L34.5854 10.036H36.0254L32.6954 15.868L32.6774 16.426ZM42.1932 15.382C42.9252 16.498 43.7352 17.596 44.6232 18.676L44.6052 18.856C44.1012 19.012 43.6872 19.102 43.3632 19.126L43.1292 18.982C42.2172 17.602 41.5272 16.516 41.0592 15.724L39.3672 15.742V16.192L39.4032 19H38.0712L38.1252 16.3L38.0712 10.036L41.1312 10.018C42.0792 10.018 42.8052 10.24 43.3092 10.684C43.8252 11.128 44.0832 11.77 44.0832 12.61C44.0832 13.222 43.9152 13.768 43.5792 14.248C43.2552 14.728 42.7932 15.106 42.1932 15.382ZM39.3852 14.626L41.0772 14.68C42.1452 14.38 42.6792 13.726 42.6792 12.718C42.6792 12.19 42.5232 11.794 42.2112 11.53C41.8992 11.266 41.4252 11.122 40.7892 11.098L39.4032 11.116L39.3852 14.626ZM48.2969 16.192L48.3329 19H47.0009L47.0549 16.3L47.0009 10.036H48.3509L48.2969 16.192ZM55.2482 9.946C56.1842 9.946 57.1262 10.15 58.0742 10.558L57.6242 11.854H57.4622C57.0182 11.566 56.6102 11.368 56.2382 11.26C55.8662 11.14 55.4642 11.08 55.0322 11.08C54.0122 11.08 53.2442 11.368 52.7282 11.944C52.2242 12.52 51.9722 13.42 51.9722 14.644C51.9722 15.82 52.2062 16.672 52.6742 17.2C53.1422 17.716 53.8862 17.974 54.9062 17.974C55.2062 17.974 55.4942 17.95 55.7702 17.902C56.0462 17.842 56.3822 17.74 56.7782 17.596V16.696L56.7602 15.418L58.0022 15.328V18.568C56.7902 18.928 55.7402 19.108 54.8522 19.108C53.4362 19.108 52.3622 18.73 51.6302 17.974C50.9102 17.206 50.5502 16.114 50.5502 14.698C50.5502 13.162 50.9582 11.986 51.7742 11.17C52.6022 10.354 53.7602 9.946 55.2482 9.946ZM68.2868 16.192L68.3228 19H66.9908L67.0448 16.3L67.0268 15.076L62.1488 15.094L62.1308 16.192L62.1668 19H60.8348L60.8888 16.3L60.8348 10.036H62.1848L62.1488 13.888L64.5788 13.906L67.0268 13.888L66.9908 10.036H68.3408L68.2868 16.192ZM76.9814 10.144L76.8914 11.278L75.2174 11.152H74.3174L74.2634 16.192L74.3174 19H72.9674L73.0214 16.3L72.9854 11.152H72.0854L70.3754 11.278L70.2674 11.152L70.3754 10.036H76.9094L76.9814 10.144Z" fill="#F9F1EF"/>
<g clip-path="url(#clip0_2706_2)">
<path d="M95 4C90.5888 4 87 7.5888 87 12C87 16.4112 90.5888 20 95 20C99.4112 20 103 16.4112 103 12C103 7.5888 99.4112 4 95 4ZM95 17.8182C91.7919 17.8182 89.1818 15.2081 89.1818 12C89.1818 8.79185 91.7919 6.18182 95 6.18182C98.2081 6.18182 100.818 8.79185 100.818 12C100.818 15.2081 98.2081 17.8182 95 17.8182ZM97.1613 13.3283L98.3408 14.4239L97.7465 14.9441C97.002 15.5954 96.0511 15.9543 95.0689 15.9543C92.862 15.9543 91.0666 14.1959 91.0666 12.0346C91.0666 9.87833 92.862 8.124 95.0689 8.124C96.0519 8.124 96.9996 8.47949 97.7374 9.12502L98.31 9.62611L97.1796 10.7571L96.6777 10.3137C96.246 9.93236 95.6747 9.72233 95.0689 9.72233C93.7433 9.72233 92.6649 10.7596 92.6649 12.0345C92.6649 13.3145 93.7433 14.3559 95.0689 14.3559C95.668 14.3559 96.2393 14.1425 96.6777 13.7553L97.1613 13.3283Z" fill="white"/>
</g>
<defs>
<clipPath id="clip0_2706_2">
<rect width="16" height="16" fill="white" transform="translate(87 4)"/>
</clipPath>
</defs>
</svg>
