<svg width="80" height="80" viewBox="0 0 80 80" fill="none" xmlns="http://www.w3.org/2000/svg">
<g clip-path="url(#clip0_2643_75)">
<path d="M11.6 1.19999C9.5 8.49999 8.9 11.9 8.8 18.2C8.7 23.6 8.3 25.8 7.1 26.7C5.6 27.7 5.7 27.9 7.3 28.5C8.8 29.2 9 31.2 9 51.1C9 69.9 8.8 73 7.5 73C6.6 73 6 73.9 6 75.5C6 76.9 5.6 78 5 78C4.5 78 4 78.4 4 79C4 79.6 16.7 80 40 80C63.3 80 76 79.6 76 79C76 78.4 75.6 78 75 78C74.5 78 74 76.9 74 75.6C74 74.3 73.3 73 72.5 72.6C71.2 72.2 71 68.8 71 50.6C71 31.2 71.2 29.2 72.8 28.5C74.3 27.9 74.4 27.7 72.9 26.7C71.7 25.8 71.3 23.5 71.1 18C70.9 10.2 68.9 0.499992 67.5 0.499992C66.2 0.499992 64.1 10.9 63.9 18.5C63.7 23.6 63.3 25.8 62.1 26.7C60.6 27.7 60.7 27.9 62.3 28.5C63.6 29.1 64 30.4 64 34.6C64 39.7 63.9 40 61.5 40C59.4 40 59 39.5 59 37.1C59 30.1 54.2 23.8 45.9 20C42.1 18.2 41 17.1 41 15.3C41 14 40.6 13 40 13C39.5 13 39 14 39 15.3C39 17.1 37.9 18.2 34.1 20C25.8 23.8 21 30.1 21 37.1C21 39.5 20.6 40 18.5 40C17.1 40 16 39.5 16 39C16 38.4 15.6 38 15 38C14.4 38 14 44.5 14 55.5C14 70.4 13.8 73 12.5 73C11.2 73 11 69.9 11 51C11 32.1 11.2 29 12.5 29C13.5 29 14 30 14 32C14 33.6 14.5 35 15 35C15.6 35 16 33.7 16 32.1C16 30.3 16.6 29 17.8 28.5C19.3 27.9 19.4 27.7 17.9 26.7C16.7 25.8 16.3 23.6 16.2 18.4C16.1 14.5 15.6 9.99999 15 8.59999C14.5 7.09999 14 4.8 14 3.49999C14 0.899994 12.2 -0.900009 11.6 1.19999ZM13.4 11.2C13.9 13.3 13.7 14 12.5 14C10.8 14 10.7 13.6 11.6 10.2C12.4 7.49999 12.5 7.59999 13.4 11.2ZM68.9 12.7C69 13.4 68.3 14 67.5 14C65.8 14 65.7 13.6 66.7 10.1C67.3 7.8 67.4 7.8 68.1 9.59999C68.5 10.6 68.9 12.1 68.9 12.7ZM14 17.5C14 18.3 13.3 19 12.5 19C11.7 19 11 18.3 11 17.5C11 16.7 11.7 16 12.5 16C13.3 16 14 16.7 14 17.5ZM69 17.5C69 18.3 68.3 19 67.5 19C66.7 19 66 18.3 66 17.5C66 16.7 66.7 16 67.5 16C68.3 16 69 16.7 69 17.5ZM46.6 23C52.3 26.2 56 30.2 56 33.1C56 35.3 53.1 35.7 51.2 33.8C50.3 32.9 49.7 32.9 48.8 33.8C47.3 35.3 42.7 35.3 41.2 33.8C40.3 32.9 39.7 32.9 38.8 33.8C38.1 34.5 36.4 35 35 35C33.6 35 31.9 34.5 31.2 33.8C30.3 32.9 29.7 32.9 28.8 33.8C28.1 34.5 26.8 35 25.8 35C23.3 35 23.5 31.9 26.1 28.6C28.4 25.7 37.6 20 40 20C40.8 20 43.8 21.3 46.6 23ZM14 23.5C14 25.1 13.4 26 12.5 26C11.6 26 11 25.1 11 23.5C11 21.9 11.6 21 12.5 21C13.4 21 14 21.9 14 23.5ZM69 23.5C69 25.1 68.4 26 67.5 26C66.6 26 66 25.1 66 23.5C66 21.9 66.6 21 67.5 21C68.4 21 69 21.9 69 23.5ZM69 51.1C69 68.3 68.7 73.1 67.8 72.8C66.8 72.4 66.4 66.9 66.2 50.7C66 31.8 66.2 29 67.5 29C68.8 29 69 32 69 51.1ZM31 38C31 39.1 30.6 40 30 40C29.5 40 29 39.1 29 38C29 36.9 29.5 36 30 36C30.6 36 31 36.9 31 38ZM41 38C41 39.1 40.6 40 40 40C39.5 40 39 39.1 39 38C39 36.9 39.5 36 40 36C40.6 36 41 36.9 41 38ZM51 38C51 39.1 50.6 40 50 40C49.5 40 49 39.1 49 38C49 36.9 49.5 36 50 36C50.6 36 51 36.9 51 38ZM26 38.5C26 39.3 25.6 40 25 40C24.5 40 24 39.3 24 38.5C24 37.7 24.5 37 25 37C25.6 37 26 37.7 26 38.5ZM36 38.5C36 39.3 35.6 40 35 40C34.5 40 34 39.3 34 38.5C34 37.7 34.5 37 35 37C35.6 37 36 37.7 36 38.5ZM46 38.5C46 39.3 45.6 40 45 40C44.5 40 44 39.3 44 38.5C44 37.7 44.5 37 45 37C45.6 37 46 37.7 46 38.5ZM56 38.5C56 39.3 55.6 40 55 40C54.5 40 54 39.3 54 38.5C54 37.7 54.5 37 55 37C55.6 37 56 37.7 56 38.5ZM31.2 43.2C30.6 43.8 28.7 44.3 27 44.3C25.3 44.3 23.4 43.8 22.8 43.2C21.9 42.3 22.9 42 27 42C31.1 42 32.1 42.3 31.2 43.2ZM56.3 43.6C54 44.6 52.3 44.7 50.5 44C46.6 42.5 47.5 42 53.8 42.1L59.5 42.2L56.3 43.6ZM45.7 44.6C52.7 47.3 50.5 49.4 43.4 46.8C40.8 45.9 39.3 45.9 36.2 46.9C30.6 48.8 28.5 47.1 33.6 44.9C38.6 42.7 40.5 42.6 45.7 44.6ZM20.6 45C22.4 45.7 23 46.4 22.3 47.1C20.9 48.5 16 47.1 16 45.4C16 43.7 17 43.7 20.6 45ZM64 45.4C64 47.1 59.1 48.5 57.7 47.1C57 46.4 57.4 45.8 59.1 45.1C62.5 43.7 64 43.8 64 45.4ZM42.8 49.1C45.8 50.1 45.9 50.3 44.5 52.3C42.4 55.4 37.5 55.4 35.6 52.5C34.1 50.3 34.2 50.1 36.8 49.2C38.3 48.6 39.5 48.1 39.6 48.1C39.7 48 41.1 48.5 42.8 49.1ZM18 50.4C18 51.2 17.6 52.2 17 52.5C16.5 52.8 16 52.2 16 51.1C16 49.9 16.5 49 17 49C17.6 49 18 49.6 18 50.4ZM25 51.5C25 52.9 24.6 54 24.1 54C21.2 54 20 57.4 20 65.1C20 72.3 19.8 73 18 73C16.2 73 16 72.3 16 65.9C16 58.4 16.8 56.1 20.8 51.7C24 48.3 25 48.3 25 51.5ZM30 50C34 52.1 36 57.3 36 65.4C36 72.2 35.8 73.1 34.3 72.8C32.8 72.5 32.4 71 32 64C31.6 56.4 31.3 55.4 29.3 54.5C27.9 53.9 27 52.7 27 51.3C27 48.7 27.3 48.6 30 50ZM53 51.3C53 52.7 52.1 53.9 50.8 54.5C48.7 55.4 48.4 56.4 48 64C47.6 71 47.2 72.5 45.8 72.8C44.2 73.1 44 72.2 44 65.4C44 59.4 44.4 57 46.1 54.4C49.3 49.1 53 47.5 53 51.3ZM59.2 51.7C63.2 56.1 64 58.4 64 65.9C64 72.3 63.8 73 62 73C60.3 73 60 72.3 60 68.5C60 62.8 58.2 62.6 57.8 68.2C57.6 70.5 56.9 72.5 56.3 72.8C55.3 73.1 55 71.1 55 65.1C55 59.9 55.4 57 56.1 57C56.7 57 57.4 57.9 57.7 59C58.3 61.4 60 61.7 60 59.4C60 57 58.1 54 56.5 54C55.6 54 55 53 55 51.5C55 48.3 56 48.3 59.2 51.7ZM64 51.1C64 52.2 63.6 52.8 63 52.5C62.5 52.2 62 51.2 62 50.4C62 49.6 62.5 49 63 49C63.6 49 64 49.9 64 51.1ZM25 65.1C25 71.1 24.7 73.1 23.8 72.8C23 72.5 22.4 70 22.2 66C21.9 59.3 22.3 57 24 57C24.6 57 25 60.2 25 65.1ZM30 65.1C30 71.1 29.7 73.1 28.8 72.8C28 72.5 27.4 70 27.2 66C26.9 59.3 27.3 57 29 57C29.6 57 30 60.2 30 65.1ZM41 65C41 69.7 40.6 73 40 73C39.4 73 39 69.7 39 65C39 60.3 39.4 57 40 57C40.6 57 41 60.3 41 65ZM52.5 65C52.5 70 52.1 72.5 51.3 72.8C50.3 73.1 50 71.1 50 65C50 58.9 50.3 56.9 51.3 57.2C52.1 57.5 52.5 60 52.5 65ZM71 76.5C71 77.8 66.9 78 40 78C13.1 78 9 77.8 9 76.5C9 75.2 13.1 75 40 75C66.9 75 71 75.2 71 76.5Z" fill="#122539"/>
</g>
<defs>
<clipPath id="clip0_2643_75">
<rect width="80" height="80" fill="white"/>
</clipPath>
</defs>
</svg>
