<svg width="211" height="59" viewBox="0 0 211 59" fill="none" xmlns="http://www.w3.org/2000/svg">
<g clip-path="url(#clip0_2643_25)">
<g clip-path="url(#clip1_2643_25)">
<g clip-path="url(#clip2_2643_25)">
<g clip-path="url(#clip3_2643_25)">
<g clip-path="url(#clip4_2643_25)">
<g clip-path="url(#clip5_2643_25)">
<g clip-path="url(#clip6_2643_25)">
<g clip-path="url(#clip7_2643_25)">
<path d="M88.6312 40.5203C88.9878 40.5203 89.2627 40.4398 89.4561 40.2789C89.6435 40.1231 89.7371 39.9311 89.7371 39.7026C89.7371 39.4898 89.6435 39.3003 89.4561 39.1342C89.2627 38.9681 88.9968 38.885 88.6584 38.885H83.2558V31.6819L87.3531 28.715L97.9317 38.885H94.2514C93.913 38.885 93.6471 38.9681 93.4537 39.1342C93.2664 39.3003 93.1727 39.4898 93.1727 39.7026C93.1727 39.9311 93.2664 40.1231 93.4537 40.2789C93.6471 40.4398 93.9221 40.5203 94.2786 40.5203H103.525C103.863 40.5203 104.129 40.4398 104.322 40.2789C104.516 40.1231 104.613 39.9311 104.613 39.7026C104.613 39.4898 104.519 39.3003 104.332 39.1342C104.15 38.9681 103.89 38.885 103.552 38.885H100.515L88.9848 27.6715L98.6841 19.9155H101.739C102.077 19.9155 102.337 19.835 102.519 19.6741C102.706 19.5132 102.8 19.3211 102.8 19.0978C102.8 18.8694 102.703 18.6722 102.509 18.506C102.316 18.3399 102.05 18.2568 101.712 18.2568H93.6985C93.3601 18.2568 93.0911 18.3321 92.8917 18.4827C92.6923 18.6384 92.5926 18.8175 92.5926 19.02C92.5926 19.2069 92.6893 19.3704 92.8826 19.5106C93.076 19.6507 93.3419 19.7208 93.6803 19.7208H95.6474C95.9314 19.7208 96.0735 19.7598 96.0735 19.8376C96.0735 19.874 96.0191 19.9363 95.9103 20.0245L83.1651 29.9142V19.9155H87.4347C87.7791 19.9155 88.042 19.835 88.2233 19.6741C88.4107 19.5132 88.5043 19.3263 88.5043 19.1134C88.5043 18.885 88.4046 18.6851 88.2052 18.5138C88.0058 18.3425 87.7368 18.2568 87.3984 18.2568H77.5449C77.1884 18.2568 76.9134 18.3399 76.72 18.506C76.5206 18.6722 76.4209 18.8694 76.4209 19.0978C76.4209 19.3211 76.5146 19.5132 76.7019 19.6741C76.8953 19.835 77.1703 19.9155 77.5268 19.9155H81.044V38.885H77.5268C77.1823 38.885 76.9134 38.9681 76.72 39.1342C76.5206 39.3003 76.4209 39.4898 76.4209 39.7026C76.4209 39.9311 76.5206 40.1231 76.72 40.2789C76.9134 40.4398 77.1884 40.5203 77.5449 40.5203H88.6312ZM121.138 31.2069V31.5884L119.524 31.6819C117.119 31.822 115.206 31.9986 113.786 32.2114C112.36 32.4294 111.16 32.8733 110.187 33.543C109.214 34.2127 108.728 35.2069 108.728 36.5255C108.728 37.8337 109.193 38.8772 110.124 39.6559C111.049 40.4346 112.339 40.824 113.995 40.824C115.53 40.824 116.95 40.5904 118.255 40.1231C119.56 39.6507 120.573 39.0667 121.292 38.371C121.473 39.2692 121.821 39.874 122.334 40.1854C122.854 40.4969 123.489 40.6527 124.238 40.6527C124.903 40.6527 125.54 40.5281 126.151 40.2789C126.767 40.0349 127.311 39.6974 127.782 39.2666C127.927 39.1368 128 38.9784 128 38.7915C128 38.5891 127.918 38.4048 127.755 38.2387C127.598 38.0725 127.408 37.9895 127.184 37.9895C126.991 37.9895 126.812 38.0673 126.649 38.2231C126.401 38.4515 126.063 38.6618 125.634 38.8538C125.205 39.0511 124.8 39.1497 124.419 39.1497C124.063 39.1497 123.782 39.0719 123.576 38.9161C123.371 38.7552 123.268 38.4541 123.268 38.0128V32.079C123.268 30.532 123.075 29.2497 122.688 28.2322C122.307 27.2095 121.633 26.4256 120.666 25.8805C119.699 25.3354 118.367 25.0628 116.669 25.0628C115.164 25.0628 113.828 25.2341 112.662 25.5768C111.496 25.9194 110.589 26.3944 109.943 27.0018C109.296 27.6092 108.973 28.2945 108.973 29.0576C108.973 29.4625 109.085 29.7922 109.308 30.0466C109.538 30.301 109.867 30.4281 110.296 30.4281C110.798 30.4281 111.151 30.179 111.357 29.6806C111.562 29.1874 111.695 28.4528 111.756 27.4768C112.541 27.1757 113.321 26.9577 114.094 26.8227C114.868 26.6877 115.72 26.6202 116.651 26.6202C118.3 26.6202 119.461 27.0148 120.132 27.8039C120.802 28.5878 121.138 29.7221 121.138 31.2069ZM121.138 36.9304C120.346 37.652 119.325 38.2257 118.074 38.6514C116.829 39.0719 115.551 39.2821 114.239 39.2821C113.218 39.2821 112.402 39.0641 111.792 38.628C111.182 38.1919 110.876 37.4911 110.876 36.5255C110.876 35.6377 111.23 34.9681 111.937 34.5164C112.644 34.0596 113.599 33.7377 114.801 33.5508C116.004 33.3691 117.814 33.177 120.231 32.9745L121.138 32.8967V36.9304ZM137.627 25.8415C137.361 25.8415 137.125 25.9298 136.92 26.1063C136.714 26.288 136.611 26.493 136.611 26.7215V31.0122C136.611 31.3029 136.711 31.5339 136.911 31.7052C137.11 31.8766 137.343 31.9622 137.609 31.9622C137.856 31.9622 138.068 31.8869 138.243 31.7364C138.424 31.5858 138.521 31.3782 138.533 31.1134L138.714 27.3678H148.912L137.092 38.4489C136.844 38.6877 136.72 39.0044 136.72 39.3989C136.72 39.7416 136.823 40.0141 137.028 40.2166C137.234 40.4191 137.545 40.5203 137.962 40.5203H151.523C151.807 40.5203 152.067 40.432 152.303 40.2555C152.538 40.079 152.656 39.8766 152.656 39.6481V34.532C152.656 34.2776 152.566 34.0803 152.384 33.9401C152.209 33.8 151.997 33.7299 151.75 33.7299C151.496 33.7299 151.272 33.7974 151.079 33.9324C150.892 34.0673 150.789 34.2413 150.771 34.4541L150.526 38.9629H139.131L151.351 27.5547C151.466 27.4509 151.559 27.3211 151.632 27.1653C151.71 27.0044 151.75 26.8487 151.75 26.6981C151.75 26.4593 151.641 26.2568 151.423 26.0907C151.212 25.9246 150.87 25.8415 150.399 25.8415H137.627ZM176.025 31.2069V31.5884L174.403 31.6819C171.997 31.822 170.085 31.9986 168.665 32.2114C167.238 32.4294 166.039 32.8733 165.066 33.543C164.093 34.2127 163.606 35.2069 163.606 36.5255C163.606 37.8337 164.072 38.8772 165.002 39.6559C165.933 40.4346 167.223 40.824 168.873 40.824C170.408 40.824 171.828 40.5904 173.134 40.1231C174.439 39.6507 175.454 39.0667 176.179 38.371C176.355 39.2692 176.699 39.874 177.213 40.1854C177.732 40.4969 178.367 40.6527 179.116 40.6527C179.781 40.6527 180.422 40.5281 181.038 40.2789C181.649 40.0349 182.189 39.6974 182.661 39.2666C182.806 39.1368 182.878 38.9784 182.878 38.7915C182.878 38.5891 182.8 38.4048 182.643 38.2387C182.479 38.0725 182.286 37.9895 182.062 37.9895C181.869 37.9895 181.691 38.0673 181.528 38.2231C181.28 38.4515 180.941 38.6618 180.512 38.8538C180.083 39.0511 179.678 39.1497 179.298 39.1497C178.941 39.1497 178.66 39.0719 178.455 38.9161C178.249 38.7552 178.146 38.4541 178.146 38.0128V32.079C178.146 30.532 177.953 29.2497 177.566 28.2322C177.186 27.2095 176.512 26.4256 175.545 25.8805C174.578 25.3354 173.245 25.0628 171.547 25.0628C170.043 25.0628 168.71 25.2341 167.55 25.5768C166.383 25.9194 165.474 26.3944 164.821 27.0018C164.175 27.6092 163.851 28.2945 163.851 29.0576C163.851 29.4625 163.966 29.7922 164.196 30.0466C164.419 30.301 164.746 30.4281 165.175 30.4281C165.676 30.4281 166.03 30.179 166.235 29.6806C166.447 29.1874 166.58 28.4528 166.634 27.4768C167.42 27.1757 168.199 26.9577 168.973 26.8227C169.746 26.6877 170.598 26.6202 171.529 26.6202C173.179 26.6202 174.342 27.0148 175.019 27.8039C175.69 28.5878 176.025 29.7221 176.025 31.2069ZM176.025 36.9304C175.228 37.652 174.203 38.2257 172.952 38.6514C171.707 39.0719 170.429 39.2821 169.118 39.2821C168.097 39.2821 167.281 39.0641 166.67 38.628C166.06 38.1919 165.755 37.4911 165.755 36.5255C165.755 35.6377 166.108 34.9681 166.815 34.5164C167.522 34.0596 168.477 33.7377 169.68 33.5508C170.883 33.3691 172.692 33.177 175.11 32.9745L176.025 32.8967V36.9304ZM205.232 30.2568V38.9629H202.005C201.709 38.9629 201.479 39.0355 201.316 39.1809C201.153 39.3263 201.071 39.5002 201.071 39.7026C201.071 39.9207 201.159 40.1102 201.334 40.2711C201.516 40.4372 201.766 40.5203 202.087 40.5203H209.728C210.018 40.5203 210.245 40.4398 210.408 40.2789C210.571 40.1231 210.653 39.9363 210.653 39.7182C210.653 39.5157 210.577 39.3392 210.426 39.1887C210.269 39.0381 210.049 38.9629 209.765 38.9629H207.353V30.3892C207.353 28.6916 206.837 27.3782 205.803 26.4489C204.776 25.5248 203.22 25.0628 201.135 25.0628C200.132 25.0628 199.159 25.2082 198.216 25.4989C197.273 25.7896 196.439 26.1867 195.714 26.6903C194.995 27.1887 194.451 27.7494 194.082 28.3723L193.965 26.0907C193.934 25.5975 193.647 25.3509 193.103 25.3509C193.043 25.3509 192.91 25.3639 192.705 25.3899L189.079 26.0128C188.825 26.0647 188.641 26.1634 188.526 26.3087C188.405 26.4541 188.344 26.615 188.344 26.7915C188.344 26.994 188.426 27.1653 188.589 27.3055C188.752 27.4457 188.958 27.5158 189.206 27.5158C189.357 27.5158 189.505 27.4976 189.65 27.4612L192.043 27.0407V38.9629H189.65C189.354 38.9629 189.127 39.0355 188.97 39.1809C188.807 39.3263 188.725 39.5002 188.725 39.7026C188.725 39.9207 188.813 40.1102 188.988 40.2711C189.163 40.4372 189.414 40.5203 189.74 40.5203H196.448C196.787 40.5203 197.056 40.4398 197.255 40.2789C197.455 40.1231 197.554 39.9363 197.554 39.7182C197.554 39.5157 197.461 39.3392 197.273 39.1887C197.092 39.0381 196.832 38.9629 196.494 38.9629H194.164V30.9577C194.164 30.2984 194.466 29.6339 195.071 28.9642C195.675 28.2893 196.521 27.7312 197.609 27.2899C198.69 26.8435 199.905 26.6202 201.253 26.6202C202.564 26.6202 203.555 26.9369 204.226 27.5703C204.897 28.2036 205.232 29.0991 205.232 30.2568Z" fill="white"/>
</g>
</g>
</g>
</g>
<g clip-path="url(#clip8_2643_25)">
<g clip-path="url(#clip9_2643_25)">
<path d="M57.9074 13.162V8.81336C57.9074 8.14151 57.2675 7.59182 56.4854 7.59182H54.3738L54.7222 6.41915C54.9639 6.48023 55.2199 6.48634 55.4758 6.42526C56.2366 6.25424 56.6845 5.5824 56.4854 4.92888L55.7104 2.41863C55.5469 1.88116 54.9781 1.50859 54.3383 1.50859H54.3311C53.6842 1.50859 53.1225 1.89338 52.959 2.43085L51.4446 7.58572H51.1744C50.3923 7.58572 49.7524 8.13541 49.7524 8.80725V23.5206C48.9135 22.9465 47.9252 22.5312 46.8445 22.3113C46.4819 18.4635 43.0124 15.2875 40.1329 15.2875H39.1873V8.09265C39.1873 7.42081 38.5474 6.87112 37.7653 6.87112H35.4191L35.995 4.91056C36.2296 4.97164 36.4927 4.97774 36.7486 4.91667C37.5094 4.74565 37.9573 4.07381 37.7582 3.42029L36.9833 0.910042C36.8197 0.372568 36.2581 0.0244306 35.5969 0C34.9499 0 34.3882 0.384783 34.2247 0.922257L32.4757 6.86501H32.4401C31.658 6.86501 31.0182 7.4147 31.0182 8.08654V15.2814H30.0726C27.2002 15.2814 23.7235 18.4574 23.3609 22.3052C22.2802 22.5251 21.292 22.9465 20.453 23.5145V8.81336C20.453 8.14151 19.8131 7.59182 19.0311 7.59182H16.4147L16.763 6.41915C17.0048 6.48023 17.2607 6.48634 17.5167 6.42526C18.2774 6.25424 18.7253 5.5824 18.5263 4.92888L17.7513 2.41863C17.5878 1.88116 17.019 1.50859 16.3791 1.50859H16.372C15.725 1.50859 15.1633 1.89338 14.9998 2.43085L13.4783 7.60404C12.81 7.70176 12.2981 8.20259 12.2981 8.80725V13.1498C4.53422 18.1092 0.0834961 25.304 0.0834961 32.9325C0.0834961 47.3038 15.789 59 35.0992 59C54.4094 59 70.1149 47.3038 70.1149 32.9325C70.122 25.2979 65.6712 18.1275 57.9074 13.162ZM14.1182 39.6326L13.0446 36.0352L15.4193 37.1896C14.9003 37.9713 14.4666 38.7836 14.1182 39.6326ZM16.0165 44.4332C16.0165 39.9869 18.8391 35.9069 23.3751 33.7754L35.1063 28.2785L46.8374 33.7815C51.3806 35.913 54.1961 39.993 54.1961 44.4393V44.9096H51.7361C51.2526 43.059 50.2857 41.4832 49.013 40.4877L45.0031 37.3728C44.4628 36.9513 43.638 36.9513 43.0977 37.3728L39.0878 40.4877C37.8151 41.4771 36.8482 43.0529 36.3647 44.9096H33.8834C33.3999 43.059 32.433 41.4832 31.1604 40.4877L27.1504 37.3728C26.6101 36.9513 25.7854 36.9513 25.245 37.3728L21.2351 40.4877C19.9625 41.4771 18.9955 43.0529 18.5121 44.9096H16.0521V44.4332H16.0165ZM56.0659 39.5776C55.7247 38.7409 55.2839 37.9347 54.772 37.1651L57.0897 36.0352L56.0659 39.5776ZM55.0634 13.6567C55.0563 13.7239 55.0563 13.7911 55.0634 13.8644V34.2151L53.1438 35.1496C52.9661 34.9603 52.7812 34.777 52.5892 34.5938V10.0349H55.0563V13.6567H55.0634ZM49.7453 28.5533V32.4683C49.2476 32.1691 48.7357 31.8881 48.1954 31.6377L39.1873 27.4112V24.5772H45.1169C47.6693 24.5711 49.7453 26.3607 49.7453 28.5533ZM40.1329 17.7305C41.3131 17.7305 43.5385 19.5812 43.958 22.1342H39.1873V17.7305H40.1329ZM36.3434 26.0736L35.7888 25.8171C35.3622 25.6155 34.8503 25.6155 34.4238 25.8171L33.8692 26.0736V9.31418H36.3363V26.0736H36.3434ZM30.0797 17.7305H31.0253V22.1342H26.2546C26.6741 19.5812 28.9066 17.7305 30.0797 17.7305ZM25.0957 24.5711H31.0253V27.4051L22.0172 31.6316C21.4768 31.882 20.9649 32.169 20.4672 32.4622V28.5472C20.4672 26.3607 22.5433 24.5711 25.0957 24.5711ZM17.6233 34.5938C17.4243 34.7831 17.2323 34.9786 17.0474 35.174L15.1562 34.2518V10.0349H17.6233V34.5938ZM13.9902 50.7363H56.2223C50.5701 54.3582 43.183 56.563 35.1063 56.563C27.0296 56.563 19.6425 54.3582 13.9902 50.7363ZM59.5213 48.2933H10.6913C5.86375 44.1584 2.94163 38.7959 2.94163 32.9386C2.94163 26.666 6.333 20.705 12.3123 16.2891V32.8714L11.5374 32.4928C11.0397 32.2546 10.4282 32.2912 9.9732 32.5844C9.51818 32.8836 9.31911 33.3845 9.4613 33.8609L13.2224 46.4243C13.2295 46.4365 13.2366 46.4488 13.2437 46.461C13.2864 46.577 13.3361 46.687 13.4143 46.7908C13.4214 46.7969 13.4214 46.803 13.4286 46.8091C13.5068 46.9068 13.5992 46.9862 13.7058 47.0595C13.7272 47.0717 13.7485 47.0901 13.7698 47.1023C13.8765 47.1695 13.9902 47.2244 14.1182 47.2611C14.1466 47.2672 14.168 47.2733 14.1964 47.2794C14.3244 47.316 14.4666 47.3405 14.6088 47.3405H19.6781C20.389 47.3405 20.9934 46.8885 21.0858 46.2839C21.356 44.5676 22.1167 43.0773 23.1192 42.2956L26.1764 39.9197L29.2336 42.2956C30.2432 43.0773 31.0039 44.5676 31.267 46.2839C31.3594 46.8885 31.9638 47.3405 32.6747 47.3405H37.5378C38.2488 47.3405 38.8531 46.8885 38.9456 46.2839C39.2157 44.5676 39.9765 43.0773 40.979 42.2956L44.0362 39.9197L47.0934 42.2956C48.103 43.0773 48.8637 44.5676 49.1268 46.2839C49.2192 46.8885 49.8235 47.3405 50.5345 47.3405H55.6038C56.2437 47.3405 56.784 46.974 56.9618 46.4671C56.9831 46.4243 57.0115 46.3877 57.0258 46.3388L60.666 33.8548C60.8082 33.3784 60.6091 32.8775 60.1541 32.5783C59.699 32.279 59.0876 32.2423 58.5899 32.4866L57.8931 32.8226V16.2708C63.8796 20.6866 67.2638 26.6355 67.2638 32.9203C67.2781 38.7959 64.3488 44.1584 59.5213 48.2933Z" fill="#58738F"/>
</g>
</g>
</g>
</g>
</g>
</g>
<defs>
<clipPath id="clip0_2643_25">
<rect width="211" height="59" fill="white"/>
</clipPath>
<clipPath id="clip1_2643_25">
<rect width="211" height="59" fill="white" transform="translate(-0.12793 0.0404053)"/>
</clipPath>
<clipPath id="clip2_2643_25">
<rect width="210.578" height="59.0808" fill="white" transform="translate(0.0834961)"/>
</clipPath>
<clipPath id="clip3_2643_25">
<rect width="210.578" height="59.0808" fill="white" transform="translate(0.0834961)"/>
</clipPath>
<clipPath id="clip4_2643_25">
<rect width="134.249" height="22.5672" fill="white" transform="translate(76.4126 18.2568)"/>
</clipPath>
<clipPath id="clip5_2643_25">
<rect width="134.249" height="22.5672" fill="white" transform="translate(76.4126 18.2568)"/>
</clipPath>
<clipPath id="clip6_2643_25">
<rect width="134.249" height="22.5672" fill="white" transform="translate(76.4126 18.2568)"/>
</clipPath>
<clipPath id="clip7_2643_25">
<rect width="134.249" height="22.5672" fill="white" transform="translate(76.4126 18.2568)"/>
</clipPath>
<clipPath id="clip8_2643_25">
<rect width="70.0314" height="59" fill="white" transform="translate(0.0834961)"/>
</clipPath>
<clipPath id="clip9_2643_25">
<rect width="70.0314" height="59" fill="white" transform="translate(0.0834961)"/>
</clipPath>
</defs>
</svg>
