<svg width="80" height="80" viewBox="0 0 80 80" fill="none" xmlns="http://www.w3.org/2000/svg">
<path d="M24.815 2.47177C39.9998 -2.90147 50.7533 0.990378 62.5523 9.28385C63.1521 9.70544 63.4466 10.4408 63.3125 11.1616C63.0964 12.3234 61.8778 13.0017 60.7569 12.6276C36.8897 4.66173 19.2637 18.2779 19.1026 40.0166C18.9356 62.5425 36.6431 76.4419 61.861 67.6929C62.4847 67.4765 63.19 67.6368 63.6396 68.1203C64.2734 68.8019 64.2129 69.877 63.487 70.4597C51.6184 79.9876 37.7397 82.8602 23.5455 76.879C8.27606 70.4447 -0.556964 55.5554 0.0272726 38.2276C0.610234 20.9376 9.53418 7.879 24.815 2.47177Z" fill="#102746"/>
<path d="M77.8531 40.9892L68.4973 45.226C68.1557 45.3807 67.9293 45.7135 67.911 46.088L67.4221 56.0788C67.3789 56.9626 66.2935 57.3589 65.6909 56.7108L58.8121 49.3126C58.5695 49.0517 58.2064 48.9395 57.859 49.0182L48.5226 51.1322C47.6827 51.3224 47.0112 50.4326 47.4244 49.677L52.4587 40.4724C52.6149 40.1868 52.6223 39.843 52.4786 39.551L47.9081 30.2658C47.5389 29.5158 48.1983 28.6708 49.0155 28.8466L59.0837 31.0122C59.4549 31.0921 59.8393 30.9548 60.076 30.6578L65.6487 23.6654C66.224 22.9435 67.3868 23.3201 67.4297 24.2422L67.9109 34.5931C67.9291 34.9859 68.1759 35.3315 68.5414 35.4764L77.809 39.1486C78.6296 39.4737 78.6572 40.6251 77.8531 40.9892Z" fill="#102746"/>
</svg>
