<svg width="80" height="80" viewBox="0 0 80 80" fill="none" xmlns="http://www.w3.org/2000/svg">
<path d="M20.7002 5.6C20.3002 6 20.0002 12.4 20.0002 19.9C20.0002 31.3 20.4002 34.2 22.0002 37.9C23.1002 40.3 24.0002 42.4 24.0002 42.6C24.0002 42.8 22.2002 43.7 20.0002 44.6C12.0002 47.8 6.00017 57.8 5.70017 68.3C5.50017 73.9 5.70017 74.5 7.50017 74.5C9.20017 74.5 9.60017 73.6 10.1002 69.4C11.0002 62.3 12.7002 57.5 15.7002 54C18.5002 50.6 20.1002 50.3 22.1002 52.6C23.9002 54.8 29.9002 57.7 34.3002 58.5C37.6002 59.1 38.0002 59.6 38.0002 62.2C38.0002 66.1 41.4002 65.8 41.8002 61.7C42.0002 60.2 42.7002 59 43.3002 59C46.6002 59 52.4002 56.6 56.4002 53.5L60.9002 50.1L63.8002 53.5C67.2002 57.3 69.0002 62 69.9002 69.4C70.4002 73.6 70.8002 74.5 72.5002 74.5C74.3002 74.5 74.5002 73.9 74.3002 68.2C73.8002 57.1 68.3002 48.1 59.7002 44.5C56.7002 43.3 56.0002 42.5 56.5002 41.2C59.7002 33.9 60.0002 31.2 59.8002 18.7L59.5002 5.5L40.4002 5.2C30.0002 5.1 21.1002 5.3 20.7002 5.6ZM55.0002 15V20H40.0002H25.0002V15V10H40.0002H55.0002V15ZM55.0002 28.8C55.0002 34 51.2002 41 47.2002 43.4C42.9002 45.8 37.1002 45.8 32.8002 43.4C28.8002 41 25.0002 34 25.0002 28.8V25H40.0002H55.0002V28.8ZM37.8002 52.4C38.0002 53.3 37.5002 54 36.5002 54C34.5002 54 28.2002 51.4 26.2002 49.7C25.0002 48.7 25.1002 48.4 27.1002 48C30.0002 47.2 37.4002 50.3 37.8002 52.4ZM54.1002 48C56.1002 48 53.6002 50.3 49.6002 52.1C44.6002 54.3 42.0002 54.5 42.0002 52.5C42.0002 50.9 49.8002 47 51.8002 47.6C52.6002 47.8 53.6002 48 54.1002 48Z" fill="#122539"/>
<path d="M37.3001 70.6C37.0001 71.4 37.5001 72.9 38.4001 73.8C39.9001 75.3 40.1001 75.3 41.6001 73.8C43.7001 71.7 42.7001 69 40.0001 69C38.9001 69 37.7001 69.7 37.3001 70.6Z" fill="#122539"/>
</svg>
