<svg xmlns="http://www.w3.org/2000/svg" version="1.1" xmlns:xlink="http://www.w3.org/1999/xlink" xmlns:svgjs="http://svgjs.dev/svgjs" width="128" height="128" viewBox="0 0 128 128"><g transform="matrix(0.8046875,0,0,0.8046875,12.760752631578946,13.110116272565179)"><svg viewBox="0 0 95 94" data-background-color="#e9efe7" preserveAspectRatio="xMidYMid meet" height="126" width="128" xmlns="http://www.w3.org/2000/svg" xmlns:xlink="http://www.w3.org/1999/xlink"><g id="tight-bounds" transform="matrix(1,0,0,1,-0.24049999999999727,0.1803884272226668)"><svg viewBox="0 0 95.481 93.63922314555468" height="93.63922314555468" width="95.481"><g><svg viewBox="0 0 95.481 93.63922314555468" height="93.63922314555468" width="95.481"><g><svg viewBox="0 0 95.481 93.63922314555468" height="93.63922314555468" width="95.481"><g id="textblocktransform"><svg viewBox="0 0 95.481 93.63922314555468" height="93.63922314555468" width="95.481" id="textblock"><g><svg viewBox="0 0 95.481 93.63922314555468" height="93.63922314555468" width="95.481"><g><svg viewBox="0 0 95.481 93.63922314555468" height="93.63922314555468" width="95.481"><g><svg xmlns="http://www.w3.org/2000/svg" xmlns:xlink="http://www.w3.org/1999/xlink" version="1.1" x="0" y="0" viewBox="10.739999999999991 11.690000000000003 98.50001196253908 96.60000000000002" style="enable-background:new 0 0 120 120;" xml:space="preserve" height="93.63922314555468" width="95.481" class="icon-icon-0" data-fill-palette-color="accent" id="icon-0"><path d="M92.07 33.24v-7.12c0-1.1-0.9-2-2-2H87.1l0.49-1.92c0.34 0.1 0.7 0.11 1.06 0.01 1.07-0.28 1.7-1.38 1.42-2.45l-1.09-4.11c-0.23-0.88-1.03-1.49-1.93-1.49 0 0-0.01 0-0.01 0-0.91 0-1.7 0.63-1.93 1.51l-2.13 8.44h-0.38c-1.1 0-2 0.9-2 2V50.2c-1.18-0.94-2.57-1.62-4.09-1.98-0.51-6.3-5.39-11.5-9.44-11.5h-1.33V24.94c0-1.1-0.9-2-2-2h-3.3l0.81-3.21c0.33 0.1 0.7 0.11 1.06 0.01 1.07-0.28 1.7-1.38 1.42-2.45l-1.09-4.11c-0.23-0.88-1.02-1.45-1.95-1.49-0.91 0-1.7 0.63-1.93 1.51l-2.46 9.73h-0.05c-1.1 0-2 0.9-2 2v11.78h-1.33c-4.04 0-8.93 5.2-9.44 11.5-1.52 0.36-2.91 1.05-4.09 1.98V26.12c0-1.1-0.9-2-2-2h-3.68l0.49-1.92c0.34 0.1 0.7 0.11 1.06 0.01 1.07-0.28 1.7-1.38 1.42-2.45l-1.09-4.11c-0.23-0.88-1.03-1.49-1.93-1.49 0 0-0.01 0-0.01 0-0.91 0-1.7 0.63-1.93 1.51l-2.14 8.47c-0.94 0.16-1.66 0.98-1.66 1.97v7.11c-10.92 8.12-17.18 19.9-17.18 32.39 0 23.53 22.09 42.68 49.25 42.68s49.25-19.15 49.25-42.68C109.25 53.11 102.99 41.37 92.07 33.24zM30.48 76.58l-1.51-5.89 3.34 1.89C31.58 73.86 30.97 75.19 30.48 76.58zM33.15 84.44c0-7.28 3.97-13.96 10.35-17.45L60 57.99l16.5 9.01c6.39 3.49 10.35 10.17 10.35 17.45v0.77h-3.46c-0.68-3.03-2.04-5.61-3.83-7.24l-5.64-5.1c-0.76-0.69-1.92-0.69-2.68 0l-5.64 5.1c-1.79 1.62-3.15 4.2-3.83 7.24h-3.49c-0.68-3.03-2.04-5.61-3.83-7.24l-5.64-5.1c-0.76-0.69-1.92-0.69-2.68 0l-5.64 5.1c-1.79 1.62-3.15 4.2-3.83 7.24h-3.46V84.44zM89.48 76.49c-0.48-1.37-1.1-2.69-1.82-3.95l3.26-1.85L89.48 76.49zM88.07 34.05c-0.01 0.11-0.01 0.22 0 0.34v33.32l-2.7 1.53c-0.25-0.31-0.51-0.61-0.78-0.91V28.12h3.47V34.05zM80.59 58.44v6.41c-0.7-0.49-1.42-0.95-2.18-1.36l-12.67-6.92v-4.64h8.34C77.67 51.92 80.59 54.85 80.59 58.44zM67.07 40.72c1.66 0 4.79 3.03 5.38 7.21h-6.71v-7.21H67.07zM61.74 54.38l-0.78-0.42c-0.6-0.33-1.32-0.33-1.92 0l-0.78 0.42V26.94h3.47V54.38zM52.93 40.72h1.33v7.21h-6.71C48.14 43.75 51.28 40.72 52.93 40.72zM45.92 51.92h8.34v4.64l-12.67 6.92c-0.76 0.41-1.48 0.88-2.18 1.36v-6.41C39.41 54.85 42.33 51.92 45.92 51.92zM35.41 68.33c-0.28 0.31-0.55 0.63-0.81 0.95l-2.66-1.51V28.12h3.47V68.33zM30.3 94.76H89.7c-7.95 5.93-18.34 9.54-29.7 9.54S38.25 100.69 30.3 94.76zM94.34 90.76H25.66c-6.79-6.77-10.9-15.55-10.9-25.14 0-10.27 4.77-20.03 13.18-27.26v27.15l-1.09-0.62c-0.7-0.39-1.56-0.33-2.2 0.15-0.64 0.49-0.92 1.31-0.72 2.09l5.29 20.57c0.01 0.02 0.02 0.04 0.03 0.06 0.06 0.19 0.13 0.37 0.24 0.54 0.01 0.01 0.01 0.02 0.02 0.03 0.11 0.16 0.24 0.29 0.39 0.41 0.03 0.02 0.06 0.05 0.09 0.07 0.15 0.11 0.31 0.2 0.49 0.26 0.04 0.01 0.07 0.02 0.11 0.03 0.18 0.06 0.38 0.1 0.58 0.1 0 0 0 0 0 0 0 0 0 0 0 0s0 0 0 0h7.13c1 0 1.85-0.74 1.98-1.73 0.38-2.81 1.45-5.25 2.86-6.53l4.3-3.89 4.3 3.89c1.42 1.28 2.49 3.72 2.86 6.53 0.13 0.99 0.98 1.73 1.98 1.73h6.84c1 0 1.85-0.74 1.98-1.73 0.38-2.81 1.45-5.25 2.86-6.53l4.3-3.89 4.3 3.89c1.42 1.28 2.49 3.72 2.86 6.53 0.13 0.99 0.98 1.73 1.98 1.73h7.13c0.9 0 1.66-0.6 1.91-1.43 0.03-0.07 0.07-0.13 0.09-0.21l5.12-20.44c0.2-0.78-0.08-1.6-0.72-2.09-0.64-0.49-1.5-0.55-2.2-0.15l-0.98 0.55v-27.1c8.42 7.23 13.18 16.97 13.18 27.26C105.25 75.21 101.13 83.99 94.34 90.76z" fill="#58738f" data-fill-palette-color="accent"></path></svg></g></svg></g></svg></g></svg></g></svg></g></svg></g><defs></defs></svg><rect width="95.481" height="93.63922314555468" fill="none" stroke="none" visibility="hidden"></rect></g></svg></g></svg>